<?xml version="1.0" encoding="UTF-8"?>
<svg id="Layer_2" data-name="Layer 2" xmlns="http://www.w3.org/2000/svg" viewBox="0 0 124.51 38.74">
  <defs>
    <style>
      .cls-1 {
        fill: #f05171;
      }

      .cls-1, .cls-2, .cls-3 {
        stroke-width: 0px;
      }

      .cls-4 {
        fill: #231f20;
        font-family: BlackadderITC-Regular, 'Blackadder ITC';
        font-size: 26.6px;
      }

      .cls-2 {
        fill: #5f72b6;
        opacity: .8;
      }

      .cls-3 {
        fill: #32c4eb;
        opacity: .46;
      }
    </style>
  </defs>
  <g id="Layer_1-2" data-name="Layer 1">
    <g>
      <text class="cls-4" transform="translate(50.43 28.46)"><tspan x="0" y="0">with you</tspan></text>
      <g>
        <path class="cls-1" d="m31.75,24.51c-5.89,1.41-9.97,5.45-9.11,9.01.86,3.56,4.3,6.24,10.19,4.83,5.89-1.41,11.99-6.39,11.13-9.95s-6.32-5.3-12.21-3.89Z"/>
        <path class="cls-2" d="m5.93,28.52c6.05,6.54,14.16,8.87,18.11,5.21,3.95-3.66,4.92-10.01-1.13-16.54C16.86,10.65,6.09,6.4,2.13,10.06S-.12,21.98,5.93,28.52Z"/>
        <path class="cls-3" d="m18.83,11.24c-5.05,8.74-4.85,18.3.44,21.35s12.48,1.96,17.53-6.77c5.05-8.74,6.03-21.82.74-24.87s-13.66,1.56-18.71,10.3Z"/>
      </g>
    </g>
  </g>
</svg>